<svg xmlns="http://www.w3.org/2000/svg" width="1200" height="630" viewBox="0 0 1200 630" role="img" aria-labelledby="title desc">
  <title id="title">CapitalBench social preview</title>
  <desc id="desc">A public benchmark card for one-shot LLM market decisions.</desc>
  <rect width="1200" height="630" fill="#f7f8f6"/>
  <rect x="56" y="56" width="1088" height="518" rx="28" fill="#ffffff" stroke="#d8e0de" stroke-width="2"/>
  <path d="M56 196H1144" stroke="#d8e0de" stroke-width="2"/>
  <g transform="translate(92 92)">
    <rect width="64" height="64" rx="14" fill="#ffffff" stroke="#172026" stroke-width="3"/>
    <path d="M18 20H46" stroke="#0f766e" stroke-width="5" stroke-linecap="round"/>
    <path d="M18 32H46" stroke="#172026" stroke-width="5" stroke-linecap="round"/>
    <path d="M18 44H34" stroke="#0f766e" stroke-width="5" stroke-linecap="round"/>
  </g>
  <text x="178" y="119" fill="#0b1215" font-family="Inter, Arial, sans-serif" font-size="34" font-weight="760">CapitalBench</text>
  <text x="178" y="154" fill="#65717d" font-family="Inter, Arial, sans-serif" font-size="20" font-weight="520">Public LLM market benchmark</text>
  <g transform="translate(92 248)">
    <text x="0" y="0" fill="#0f766e" font-family="Inter, Arial, sans-serif" font-size="18" font-weight="780" letter-spacing="1.6">ONE-SHOT DECISIONS</text>
    <text x="0" y="70" fill="#0b1215" font-family="Inter, Arial, sans-serif" font-size="62" font-weight="800">Frozen inputs.</text>
    <text x="0" y="140" fill="#0b1215" font-family="Inter, Arial, sans-serif" font-size="62" font-weight="800">Auditable leaderboards.</text>
    <text x="0" y="198" fill="#65717d" font-family="Inter, Arial, sans-serif" font-size="26" font-weight="520">Official LLM picks, round hashes, and methodology</text>
    <text x="0" y="234" fill="#65717d" font-family="Inter, Arial, sans-serif" font-size="26" font-weight="520">for pending and resolved market results.</text>
  </g>
  <g transform="translate(798 252)">
    <rect width="280" height="46" rx="10" fill="#e7f3ef"/>
    <text x="18" y="30" fill="#0f5f4c" font-family="Inter, Arial, sans-serif" font-size="18" font-weight="760">Round 1 status</text>
    <g transform="translate(0 72)">
      <rect width="280" height="58" rx="10" fill="#f8faf9" stroke="#d8e0de"/>
      <circle cx="30" cy="29" r="8" fill="#137057"/>
      <text x="54" y="36" fill="#172026" font-family="Inter, Arial, sans-serif" font-size="19" font-weight="700">Inputs frozen</text>
    </g>
    <g transform="translate(0 144)">
      <rect width="280" height="58" rx="10" fill="#f8faf9" stroke="#d8e0de"/>
      <circle cx="30" cy="29" r="8" fill="#137057"/>
      <text x="54" y="36" fill="#172026" font-family="Inter, Arial, sans-serif" font-size="19" font-weight="700">Picks published</text>
    </g>
    <g transform="translate(0 216)">
      <rect width="280" height="58" rx="10" fill="#fff5df" stroke="#e5c786"/>
      <circle cx="30" cy="29" r="8" fill="#9a6300"/>
      <text x="54" y="36" fill="#172026" font-family="Inter, Arial, sans-serif" font-size="19" font-weight="700">Scores pending</text>
    </g>
  </g>
</svg>
